<svg width="24" height="24" viewBox="0 0 24 24" fill="none" xmlns="http://www.w3.org/2000/svg">
<path fill-rule="evenodd" clip-rule="evenodd" d="M8.05157 6.16738C9.37075 5.87452 11.1057 5.83608 12.2921 7.15032C12.3304 7.19289 12.3607 7.24342 12.3814 7.29901C12.402 7.3546 12.4126 7.41417 12.4125 7.4743V17.5416C12.4127 17.6322 12.3886 17.7208 12.3432 17.7962C12.2979 17.8716 12.2334 17.9304 12.158 17.9651C12.0825 17.9998 11.9995 18.0089 11.9193 17.9912C11.8392 17.9734 11.7657 17.9297 11.708 17.8656C11.0125 17.0931 9.9631 16.8964 8.84522 17.0236C7.73642 17.1517 6.65072 17.5883 5.99732 17.9507C5.93444 17.9856 5.86453 18.0022 5.79426 17.9987C5.72398 17.9953 5.65567 17.9719 5.59582 17.9309C5.53597 17.8899 5.48656 17.8326 5.45229 17.7645C5.41802 17.6963 5.40003 17.6196 5.40002 17.5416V7.4743C5.40003 7.38939 5.42133 7.30615 5.46154 7.2339C5.50175 7.16165 5.55929 7.10324 5.62772 7.0652L5.81252 7.4743L5.62772 7.0652L5.62937 7.06429L5.63267 7.06246L5.6434 7.05696C5.7032 7.02392 5.76372 6.99249 5.8249 6.9627C6.53893 6.60797 7.2859 6.34127 8.0524 6.16738H8.05157ZM6.22502 7.76717V16.835C6.92297 16.5211 7.82882 16.22 8.76107 16.1139C9.70405 16.0059 10.7303 16.0928 11.5875 16.6264V7.67381C10.7105 6.82359 9.41695 6.79888 8.21327 7.06612C7.53005 7.22118 6.86358 7.45618 6.22502 7.76717Z" fill="#151515"/>
<path fill-rule="evenodd" clip-rule="evenodd" d="M15.9485 6.16738C14.6301 5.87452 12.8943 5.83608 11.708 7.15032C11.6697 7.19289 11.6394 7.24342 11.6187 7.29901C11.598 7.3546 11.5874 7.41417 11.5875 7.4743V17.5416C11.5874 17.6322 11.6115 17.7208 11.6568 17.7962C11.7021 17.8716 11.7666 17.9304 11.8421 17.9651C11.9175 17.9998 12.0006 18.0089 12.0807 17.9912C12.1608 17.9734 12.2344 17.9297 12.2921 17.8656C12.9876 17.0931 14.037 16.8964 15.1548 17.0236C16.2636 17.1517 17.3493 17.5883 18.0027 17.9507C18.0656 17.9856 18.1355 18.0022 18.2058 17.9987C18.2761 17.9953 18.3444 17.9719 18.4042 17.9309C18.4641 17.8899 18.5135 17.8326 18.5478 17.7645C18.582 17.6963 18.6 17.6196 18.6 17.5416V7.4743C18.6 7.38939 18.5787 7.30615 18.5385 7.2339C18.4983 7.16165 18.4408 7.10324 18.3723 7.0652L18.1875 7.4743L18.3723 7.0652L18.3707 7.06429L18.3674 7.06246L18.3566 7.05696L18.3179 7.03591C18.1014 6.92381 17.8816 6.82002 17.6587 6.72474C17.1036 6.48647 16.5315 6.30004 15.9485 6.16738ZM17.775 7.76717V16.835C17.0771 16.5211 16.1712 16.22 15.239 16.1139C14.296 16.0059 13.2697 16.0928 12.4125 16.6264V7.67381C13.2895 6.82359 14.5831 6.79888 15.7868 7.06612C16.47 7.22117 17.1365 7.45617 17.775 7.76717Z" fill="#151515"/>
<circle cx="12" cy="12" r="11" stroke="#151515" stroke-width="2"/>
</svg>
