<svg width="24" height="24" viewBox="0 0 24 24" fill="none" xmlns="http://www.w3.org/2000/svg">
<circle cx="12" cy="12" r="11" stroke="#151515" stroke-width="2"/>
<path d="M16.8 6H7.2C6.88174 6 6.57652 6.09725 6.35147 6.27036C6.12643 6.44347 6 6.67826 6 6.92308V17.0769C6 17.3217 6.12643 17.5565 6.35147 17.7296C6.57652 17.9027 6.88174 18 7.2 18H16.8C17.1183 18 17.4235 17.9027 17.6485 17.7296C17.8736 17.5565 18 17.3217 18 17.0769V6.92308C18 6.67826 17.8736 6.44347 17.6485 6.27036C17.4235 6.09725 17.1183 6 16.8 6ZM16.8 6.92308V9.69231H7.2V6.92308H16.8ZM7.2 13.3846V10.6154H16.8V13.3846H7.2ZM7.2 17.0769V14.3077H16.8V17.0769H7.2Z" fill="black"/>
<path d="M9.00002 8.76927C9.3314 8.76927 9.60002 8.56263 9.60002 8.30773C9.60002 8.05283 9.3314 7.84619 9.00002 7.84619C8.66865 7.84619 8.40002 8.05283 8.40002 8.30773C8.40002 8.56263 8.66865 8.76927 9.00002 8.76927Z" fill="black"/>
<path d="M9.00002 12.4615C9.3314 12.4615 9.60002 12.2549 9.60002 12C9.60002 11.7451 9.3314 11.5385 9.00002 11.5385C8.66865 11.5385 8.40002 11.7451 8.40002 12C8.40002 12.2549 8.66865 12.4615 9.00002 12.4615Z" fill="black"/>
<path d="M9.00002 16.1538C9.3314 16.1538 9.60002 15.9472 9.60002 15.6923C9.60002 15.4374 9.3314 15.2307 9.00002 15.2307C8.66865 15.2307 8.40002 15.4374 8.40002 15.6923C8.40002 15.9472 8.66865 16.1538 9.00002 16.1538Z" fill="black"/>
</svg>
