<svg width="24" height="24" viewBox="0 0 24 24" fill="none" xmlns="http://www.w3.org/2000/svg">
<path fill-rule="evenodd" clip-rule="evenodd" d="M12 22C17.5228 22 22 17.5228 22 12C22 6.47715 17.5228 2 12 2C6.47715 2 2 6.47715 2 12C2 17.5228 6.47715 22 12 22ZM12 24C18.6274 24 24 18.6274 24 12C24 5.37258 18.6274 0 12 0C5.37258 0 0 5.37258 0 12C0 18.6274 5.37258 24 12 24ZM7.28564 7.89014C7.28564 7.39024 7.48432 6.91082 7.83796 6.55734C8.1916 6.20386 8.67124 6.00527 9.17136 6.00527C9.67148 6.00527 10.1511 6.20386 10.5048 6.55734C10.8584 6.91082 11.0571 7.39024 11.0571 7.89014C11.0571 8.39004 10.8584 8.86946 10.5048 9.22294C10.1511 9.57642 9.67148 9.77501 9.17136 9.77501C8.67124 9.77501 8.1916 9.57642 7.83796 9.22294C7.48432 8.86946 7.28564 8.39004 7.28564 7.89014ZM9.17136 6.94771C8.9213 6.94771 8.68148 7.047 8.50466 7.22374C8.32784 7.40048 8.2285 7.64019 8.2285 7.89014C8.2285 8.14009 8.32784 8.3798 8.50466 8.55654C8.68148 8.73328 8.9213 8.83257 9.17136 8.83257C9.42142 8.83257 9.66124 8.73328 9.83806 8.55654C10.0149 8.3798 10.1142 8.14009 10.1142 7.89014C10.1142 7.64019 10.0149 7.40048 9.83806 7.22374C9.66124 7.047 9.42142 6.94771 9.17136 6.94771ZM13.1894 8.82991C13.3139 9.04477 13.4798 9.23291 13.6773 9.38352H13.6782C14.0751 9.67784 14.5717 9.80467 15.0612 9.73673C15.5507 9.66878 15.9939 9.41149 16.2956 9.02021C16.5972 8.62893 16.7331 8.13493 16.674 7.64451C16.615 7.15409 16.3657 6.70645 15.9798 6.39789C15.7838 6.24529 15.5595 6.1329 15.3199 6.06719C15.0804 6.00148 14.8301 5.98373 14.5837 6.01498C14.3372 6.04623 14.0993 6.12584 13.8838 6.24926C13.6682 6.37268 13.4791 6.53746 13.3274 6.73414C13.1758 6.93082 13.0645 7.15552 12.9999 7.39533C12.9354 7.63513 12.9189 7.88532 12.9514 8.13151C12.984 8.37771 13.0648 8.61505 13.1894 8.82991ZM14.1618 7.2243C14.3386 7.04756 14.5785 6.94827 14.8285 6.94827C15.0786 6.94827 15.3184 7.04756 15.4952 7.2243C15.672 7.40105 15.7714 7.64076 15.7714 7.89071C15.7714 8.14065 15.672 8.38037 15.4952 8.55711C15.3184 8.73385 15.0786 8.83314 14.8285 8.83314C14.5785 8.83314 14.3386 8.73385 14.1618 8.55711C13.985 8.38037 13.8857 8.14065 13.8857 7.89071C13.8857 7.64076 13.985 7.40105 14.1618 7.2243ZM6.81431 10.7181H9.33174C9.22802 11.0131 9.17145 11.3307 9.17145 11.6605H6.81431C6.68928 11.6605 6.56937 11.7102 6.48096 11.7986C6.39255 11.8869 6.34288 12.0068 6.34288 12.1318C6.34288 12.9017 6.64931 13.4728 7.133 13.8611C7.35551 14.0402 7.62234 14.1844 7.92405 14.2899C7.70249 14.5253 7.53175 14.8038 7.42245 15.108C7.10597 14.9809 6.80964 14.8085 6.54277 14.5962C5.83374 14.0261 5.40002 13.1835 5.40002 12.1318C5.40002 11.7568 5.54903 11.3973 5.81426 11.1322C6.07949 10.8671 6.43922 10.7181 6.81431 10.7181ZM10.1789 12.149C10.0493 11.666 10.117 11.1513 10.367 10.7181C10.6171 10.285 11.0291 9.96883 11.5123 9.83927C11.9956 9.70972 12.5105 9.77736 12.9439 10.0273C13.3772 10.2773 13.6935 10.689 13.8231 11.1721C13.9527 11.6551 13.885 12.1698 13.635 12.603C13.3849 13.0361 12.9729 13.3523 12.4897 13.4818C12.0064 13.6114 11.4915 13.5437 11.0581 13.2938C10.6248 13.0438 10.3085 12.6321 10.1789 12.149ZM12.2084 10.7423C12.0704 10.7107 11.927 10.7105 11.7889 10.7417C11.616 10.7814 11.4578 10.8691 11.3325 10.9946C11.2072 11.1202 11.1199 11.2785 11.0806 11.4514C11.0413 11.6243 11.0516 11.8048 11.1104 11.9721C11.1691 12.1395 11.2738 12.2868 11.4126 12.3973C11.5514 12.5078 11.7185 12.5769 11.8948 12.5967C12.0711 12.6165 12.2494 12.5862 12.4092 12.5092C12.569 12.4323 12.7039 12.3118 12.7983 12.1617C12.8927 12.0116 12.9428 11.8379 12.9429 11.6605C12.9424 11.519 12.9102 11.3793 12.8485 11.2519C12.7868 11.1245 12.6972 11.0125 12.5864 10.9243C12.4757 10.8361 12.3465 10.7739 12.2084 10.7423ZM16.8671 13.8611C16.6446 14.0402 16.3777 14.1844 16.076 14.2899C16.2972 14.5254 16.4677 14.8039 16.5767 15.108C16.8972 14.977 17.1943 14.8064 17.4573 14.5962C18.1663 14.0261 18.6 13.1835 18.6 12.1318C18.6 11.7568 18.451 11.3973 18.1858 11.1322C17.9206 10.8671 17.5609 10.7181 17.1858 10.7181H14.6683C14.772 11.0131 14.8286 11.3307 14.8286 11.6605H17.1858C17.3108 11.6605 17.4307 11.7102 17.5191 11.7986C17.6075 11.8869 17.6572 12.0068 17.6572 12.1318C17.6572 12.9017 17.3508 13.4728 16.8671 13.8611ZM15.3573 14.9018C15.092 14.6367 14.7323 14.4877 14.3572 14.4877H9.64293C9.45706 14.4873 9.27293 14.5235 9.10112 14.5943C8.9293 14.6652 8.7732 14.7693 8.64177 14.9007C8.51034 15.0321 8.40618 15.1881 8.33529 15.3598C8.26439 15.5316 8.22814 15.7156 8.22864 15.9014C8.22864 16.9532 8.66236 17.7957 9.37139 18.3659C10.07 18.9266 11.0072 19.1999 12.0001 19.1999C12.9929 19.1999 13.9301 18.9266 14.6288 18.3659C15.3387 17.7957 15.7715 16.9532 15.7715 15.9014C15.7715 15.5265 15.6225 15.1669 15.3573 14.9018ZM9.64293 15.4302H14.3572C14.4822 15.4302 14.6022 15.4798 14.6906 15.5682C14.779 15.6566 14.8286 15.7764 14.8286 15.9014C14.8286 16.6714 14.5222 17.2425 14.0385 17.6308C13.5426 18.0285 12.8298 18.2575 12.0001 18.2575C11.1704 18.2575 10.4576 18.0285 9.96161 17.6308C9.47793 17.2425 9.1715 16.6714 9.1715 15.9014C9.1715 15.7764 9.22117 15.6566 9.30958 15.5682C9.39799 15.4798 9.5179 15.4302 9.64293 15.4302Z" fill="#151515"/>
</svg>
