<svg width="24" height="24" viewBox="0 0 24 24" fill="none" xmlns="http://www.w3.org/2000/svg">
<path fill-rule="evenodd" clip-rule="evenodd" d="M22 12C22 17.5228 17.5228 22 12 22C6.47715 22 2 17.5228 2 12C2 6.47715 6.47715 2 12 2C17.5228 2 22 6.47715 22 12ZM24 12C24 18.6274 18.6274 24 12 24C5.37258 24 0 18.6274 0 12C0 5.37258 5.37258 0 12 0C18.6274 0 24 5.37258 24 12ZM8.33336 8.27368C8.33336 6.35829 9.97822 4.8 12 4.8C14.0218 4.8 15.6667 6.35829 15.6667 8.27368C15.6667 10.1891 14.0218 11.7474 12 11.7474C9.97822 11.7474 8.33336 10.1891 8.33336 8.27368ZM9.80002 8.27368C9.80002 9.42278 10.7871 10.3579 12 10.3579C13.213 10.3579 14.2 9.42278 14.2 8.27368C14.2 7.12459 13.213 6.18947 12 6.18947C10.7871 6.18947 9.80002 7.12459 9.80002 8.27368ZM18.6 17.3053V18H17.1334V17.3053C17.1334 15.3899 15.4885 13.8316 13.4667 13.8316H10.5334C8.51156 13.8316 6.86669 15.3899 6.86669 17.3053V18H5.40002V17.3053C5.40002 14.6243 7.70269 12.4421 10.5334 12.4421H13.4667C16.2966 12.4421 18.6 14.6243 18.6 17.3053Z" fill="#151515"/>
</svg>
