<?xml version="1.0" encoding="UTF-8"?>
<svg width="24px" height="23px" viewBox="0 0 24 23" version="1.1" xmlns="http://www.w3.org/2000/svg" xmlns:xlink="http://www.w3.org/1999/xlink">
    <!-- Generator: Sketch 53.2 (72643) - https://sketchapp.com -->
    <title>arrow_right_small</title>
    <desc>Created with Sketch.</desc>
    <g id="Page-1" stroke="none" stroke-width="1" fill="none" fill-rule="evenodd">
        <g id="arrow_right_small" fill="#E6BE00">
            <path d="M0.827081088,11.5 C0.827081088,14.5499643 2.04776276,17.4750714 4.22059862,19.6317321 C6.39343448,21.7883929 9.34046897,23 12.4132966,23 C15.4861241,23 18.4331586,21.7883929 20.6059862,19.6317321 C22.7788138,17.4750714 23.9995034,14.5499643 23.9995034,11.5 C23.9995034,8.45003571 22.7788138,5.52493679 20.6059862,3.36827607 C18.4331586,1.21160714 15.4861241,0 12.4132966,0 C9.34046897,0 6.39343448,1.21160714 4.22059862,3.36827607 C2.04776276,5.52493679 0.827081088,8.45003571 0.827081088,11.5 Z M11.9006069,15.303625 C11.7646345,15.4385857 11.6882483,15.6216 11.6882483,15.8125 C11.6882483,16.0034 11.7646345,16.1864143 11.9006069,16.321375 C12.0365793,16.4563357 12.2209655,16.5321536 12.4132966,16.5321536 C12.6055448,16.5321536 12.7900138,16.4563357 12.9259862,16.321375 L17.2708138,12.008875 C17.3382621,11.9420929 17.3917241,11.862825 17.4282207,11.7755071 C17.4647172,11.6881893 17.4835862,11.5945464 17.4835862,11.5 C17.4835862,11.4054536 17.4647172,11.3118107 17.4282207,11.2244929 C17.3917241,11.137175 17.3382621,11.0579071 17.2708138,10.991125 L12.9259862,6.678625 C12.8586207,6.61180179 12.7787586,6.55878679 12.6907862,6.52261929 C12.6028138,6.48646 12.508469,6.46783821 12.4132966,6.46783821 C12.3180414,6.46783821 12.2237793,6.48646 12.1358069,6.52261929 C12.0478345,6.55878679 11.9678897,6.61180179 11.9006069,6.678625 C11.8332414,6.74544821 11.7798621,6.82478179 11.7434483,6.91209964 C11.7069517,6.99940929 11.6882483,7.09299464 11.6882483,7.1875 C11.6882483,7.28200536 11.7069517,7.37559071 11.7434483,7.46290036 C11.7798621,7.55021821 11.8332414,7.62955179 11.9006069,7.696375 L15.0100138,10.78125 L8.06846069,10.78125 C7.87640276,10.78125 7.69222345,10.8569857 7.55641655,10.9917821 C7.42061793,11.1265786 7.34432276,11.3093464 7.34432276,11.5 C7.34432276,11.6906536 7.42061793,11.8734214 7.55641655,12.0082179 C7.69222345,12.1430143 7.87640276,12.21875 8.06846069,12.21875 L15.0100138,12.21875 L11.9006069,15.303625 Z" id="Shape"></path>
        </g>
    </g>
</svg>