<svg width="28" height="28" viewBox="0 0 28 28" fill="none" xmlns="http://www.w3.org/2000/svg">
<path fill-rule="evenodd" clip-rule="evenodd" d="M-0.000610352 14C-0.000610352 17.713 1.47438 21.274 4.09989 23.8995C6.7254 26.525 10.2864 28 13.9994 28C17.7124 28 21.2734 26.525 23.8989 23.8995C26.5244 21.274 27.9994 17.713 27.9994 14C27.9994 10.287 26.5244 6.72601 23.8989 4.10051C21.2734 1.475 17.7124 0 13.9994 0C10.2864 0 6.7254 1.475 4.09989 4.10051C1.47438 6.72601 -0.000610352 10.287 -0.000610352 14ZM13.3799 18.6305C13.2156 18.7948 13.1233 19.0176 13.1233 19.25C13.1233 19.4824 13.2156 19.7052 13.3799 19.8695C13.5442 20.0338 13.767 20.1261 13.9994 20.1261C14.2317 20.1261 14.4546 20.0338 14.6189 19.8695L19.8689 14.6195C19.9504 14.5382 20.015 14.4417 20.0591 14.3354C20.1032 14.2291 20.126 14.1151 20.126 14C20.126 13.8849 20.1032 13.7709 20.0591 13.6646C20.015 13.5583 19.9504 13.4618 19.8689 13.3805L14.6189 8.1305C14.5375 8.04915 14.441 7.98461 14.3347 7.94058C14.2284 7.89656 14.1144 7.87389 13.9994 7.87389C13.8843 7.87389 13.7704 7.89656 13.6641 7.94058C13.5578 7.98461 13.4612 8.04915 13.3799 8.1305C13.2985 8.21185 13.234 8.30843 13.19 8.41473C13.1459 8.52102 13.1233 8.63495 13.1233 8.75C13.1233 8.86505 13.1459 8.97898 13.19 9.08527C13.234 9.19157 13.2985 9.28815 13.3799 9.3695L17.1371 13.125H8.74939C8.51732 13.125 8.29477 13.2172 8.13067 13.3813C7.96658 13.5454 7.87439 13.7679 7.87439 14C7.87439 14.2321 7.96658 14.4546 8.13067 14.6187C8.29477 14.7828 8.51732 14.875 8.74939 14.875H17.1371L13.3799 18.6305Z" fill="#E6BE00"/>
</svg>
