<svg width="24" height="24" viewBox="0 0 24 24" fill="none" xmlns="http://www.w3.org/2000/svg">
<path fill-rule="evenodd" clip-rule="evenodd" d="M12.0002 0C8.81765 0 5.7654 1.26428 3.51496 3.51472C1.26453 5.76515 0.000244141 8.8174 0.000244141 12C0.000244141 15.1826 1.26453 18.2348 3.51496 20.4853C5.7654 22.7357 8.81765 24 12.0002 24C15.1828 24 18.2351 22.7357 20.4855 20.4853C22.736 18.2348 24.0002 15.1826 24.0002 12C24.0002 8.8174 22.736 5.76515 20.4855 3.51472C18.2351 1.26428 15.1828 0 12.0002 0ZM8.03124 11.469C7.89042 11.3282 7.69941 11.2491 7.50024 11.2491C7.30108 11.2491 7.11007 11.3282 6.96924 11.469C6.82841 11.6098 6.7493 11.8008 6.7493 12C6.7493 12.1992 6.82841 12.3902 6.96924 12.531L11.4692 17.031C11.5389 17.1008 11.6217 17.1563 11.7128 17.1941C11.8039 17.2319 11.9016 17.2513 12.0002 17.2513C12.0989 17.2513 12.1966 17.2319 12.2877 17.1941C12.3788 17.1563 12.4616 17.1008 12.5312 17.031L17.0312 12.531C17.101 12.4613 17.1563 12.3785 17.194 12.2874C17.2318 12.1963 17.2512 12.0986 17.2512 12C17.2512 11.9014 17.2318 11.8037 17.194 11.7126C17.1563 11.6215 17.101 11.5387 17.0312 11.469C16.9615 11.3993 16.8787 11.344 16.7876 11.3062C16.6965 11.2685 16.5989 11.2491 16.5002 11.2491C16.4016 11.2491 16.304 11.2685 16.2129 11.3062C16.1218 11.344 16.039 11.3993 15.9692 11.469L12.7502 14.6895L12.7502 7.5C12.7502 7.30109 12.6712 7.11032 12.5306 6.96967C12.3899 6.82902 12.1992 6.75 12.0002 6.75C11.8013 6.75 11.6106 6.82902 11.4699 6.96967C11.3293 7.11032 11.2502 7.30109 11.2502 7.5L11.2502 14.6895L8.03124 11.469Z" fill="#009A50"/>
</svg>
