<svg width="28" height="28" viewBox="0 0 28 28" fill="none" xmlns="http://www.w3.org/2000/svg">
<path fill-rule="evenodd" clip-rule="evenodd" d="M13.9996 -9.15527e-05C10.2865 -9.15527e-05 6.72559 1.4749 4.10008 4.10041C1.47457 6.72592 -0.000427246 10.2869 -0.000427246 13.9999C-0.000427246 17.7129 1.47457 21.2739 4.10008 23.8994C6.72559 26.5249 10.2865 27.9999 13.9996 27.9999C17.7126 27.9999 21.2736 26.5249 23.8991 23.8994C26.5246 21.2739 27.9996 17.7129 27.9996 13.9999C27.9996 10.2869 26.5246 6.72592 23.8991 4.10041C21.2736 1.4749 17.7126 -9.15527e-05 13.9996 -9.15527e-05ZM9.36907 13.3804C9.20477 13.2161 8.98193 13.1238 8.74957 13.1238C8.51722 13.1238 8.29437 13.2161 8.13007 13.3804C7.96577 13.5447 7.87347 13.7676 7.87347 13.9999C7.87347 14.2323 7.96577 14.4551 8.13007 14.6194L13.3801 19.8694C13.4614 19.9509 13.5579 20.0155 13.6642 20.0597C13.7705 20.1038 13.8845 20.1265 13.9996 20.1265C14.1147 20.1265 14.2286 20.1038 14.3349 20.0597C14.4412 20.0155 14.5378 19.9509 14.6191 19.8694L19.8691 14.6194C19.9504 14.5381 20.015 14.4415 20.059 14.3352C20.103 14.2289 20.1257 14.115 20.1257 13.9999C20.1257 13.8849 20.103 13.7709 20.059 13.6646C20.015 13.5583 19.9504 13.4618 19.8691 13.3804C19.7877 13.2991 19.6911 13.2345 19.5848 13.1905C19.4785 13.1465 19.3646 13.1238 19.2496 13.1238C19.1345 13.1238 19.0206 13.1465 18.9143 13.1905C18.808 13.2345 18.7114 13.2991 18.6301 13.3804L14.8746 17.1377L14.8746 8.74991C14.8746 8.51784 14.7824 8.29528 14.6183 8.13119C14.4542 7.96709 14.2316 7.87491 13.9996 7.87491C13.7675 7.87491 13.5449 7.96709 13.3809 8.13119C13.2168 8.29528 13.1246 8.51784 13.1246 8.74991L13.1246 17.1377L9.36907 13.3804Z" fill="#7F7F7F"/>
</svg>
