<svg width="8" height="15" viewBox="0 0 8 15" fill="none" xmlns="http://www.w3.org/2000/svg">
<path d="M6.90909 3.40909V11.25C6.90909 12.7568 5.60727 13.9773 4 13.9773C2.39273 13.9773 1.09091 12.7568 1.09091 11.25V2.72727C1.09091 1.78636 1.90545 1.02273 2.90909 1.02273C3.91273 1.02273 4.72727 1.78636 4.72727 2.72727V9.88636C4.72727 10.2614 4.4 10.5682 4 10.5682C3.6 10.5682 3.27273 10.2614 3.27273 9.88636V3.40909H2.18182V9.88636C2.18182 10.8273 2.99636 11.5909 4 11.5909C5.00364 11.5909 5.81818 10.8273 5.81818 9.88636V2.72727C5.81818 1.22045 4.51636 0 2.90909 0C1.30182 0 0 1.22045 0 2.72727V11.25C0 13.3227 1.78909 15 4 15C6.21091 15 8 13.3227 8 11.25V3.40909H6.90909Z" fill="#151515"/>
</svg>
