<svg width="18" height="18" viewBox="0 0 18 18" fill="none" xmlns="http://www.w3.org/2000/svg">
<path d="M14.5 1.8V2.3H15H16C16.8747 2.3 17.5 2.93439 17.5 3.6V16.2C17.5 16.8656 16.8747 17.5 16 17.5H2C1.11707 17.5 0.500116 16.8673 0.5 16.2002C0.5 16.2001 0.5 16.2001 0.5 16.2L0.51 3.6004V3.6C0.51 2.92976 1.1204 2.3 2 2.3H3H3.5V1.8V0.5H4.5V1.8V2.3H5H13H13.5V1.8V0.5H14.5V1.8ZM16 16.7H16.5V16.2V6.3V5.8H16H2H1.5V6.3V16.2V16.7H2H16ZM4.5 9.4V8.6H5.5V9.4H4.5ZM8.5 9.4V8.6H9.5V9.4H8.5ZM12.5 9.4V8.6H13.5V9.4H12.5Z" stroke="#151515"/>
</svg>
