<svg width="24" height="24" viewBox="0 0 24 24" fill="none" xmlns="http://www.w3.org/2000/svg">
<path fill-rule="evenodd" clip-rule="evenodd" d="M12 22C17.5228 22 22 17.5228 22 12C22 6.47715 17.5228 2 12 2C6.47715 2 2 6.47715 2 12C2 17.5228 6.47715 22 12 22ZM12 24C18.6274 24 24 18.6274 24 12C24 5.37258 18.6274 0 12 0C5.37258 0 0 5.37258 0 12C0 18.6274 5.37258 24 12 24Z" fill="#151515"/>
<path d="M12 5.3999L11.4923 5.92164L5.40002 11.6608L6.41541 12.7043L6.9231 12.1756V17.3995H11.2385V12.8817H12.7695V17.3999H17.0769V12.1756L17.5846 12.7043L18.6 11.6608L12.5077 5.92164L12 5.3999ZM12 7.48686L15.5539 11.139V16.0956H14.0308V11.6608H9.96925V16.0956H8.44618V11.139L12 7.48686Z" fill="#151515"/>
</svg>
