<?xml version="1.0" encoding="UTF-8"?>
<svg width="24px" height="24px" viewBox="0 0 24 24" version="1.1" xmlns="http://www.w3.org/2000/svg" xmlns:xlink="http://www.w3.org/1999/xlink">
    <!-- Generator: Sketch 53.2 (72643) - https://sketchapp.com -->
    <title>home</title>
    <desc>Created with Sketch.</desc>
    <g id="Page-1" stroke="none" stroke-width="1" fill="none" fill-rule="evenodd">
        <g id="home" fill="#151515">
            <path d="M12,22 C17.5228,22 22,17.5228 22,12 C22,6.47715 17.5228,2 12,2 C6.47715,2 2,6.47715 2,12 C2,17.5228 6.47715,22 12,22 Z M12,24 C18.6274,24 24,18.6274 24,12 C24,5.37258 18.6274,0 12,0 C5.37258,0 0,5.37258 0,12 C0,18.6274 5.37258,24 12,24 Z" id="Shape"></path>
            <path d="M12,5.3999 L11.4923,5.92164 L5.40002,11.6608 L6.41541,12.7043 L6.9231,12.1756 L6.9231,17.3995 L11.2385,17.3995 L11.2385,12.8817 L12.7695,12.8817 L12.7695,17.3999 L17.0769,17.3999 L17.0769,12.1756 L17.5846,12.7043 L18.6,11.6608 L12.5077,5.92164 L12,5.3999 Z M12,7.48686 L15.5539,11.139 L15.5539,16.0956 L14.0308,16.0956 L14.0308,11.6608 L9.96925,11.6608 L9.96925,16.0956 L8.44618,16.0956 L8.44618,11.139 L12,7.48686 Z" id="Shape" fill-rule="nonzero"></path>
        </g>
    </g>
</svg>