<svg width="11" height="18" viewBox="0 0 11 18" fill="none" xmlns="http://www.w3.org/2000/svg">
<path d="M0.48785 2.75843L6.96977 9.0084L0.48785 15.2584C0.333182 15.4075 0.210494 15.5845 0.126789 15.7794C0.0430837 15.9742 1.62969e-09 16.1831 0 16.394C-1.62968e-09 16.6049 0.0430837 16.8137 0.126789 17.0086C0.210494 17.2034 0.333182 17.3805 0.48785 17.5296C0.642517 17.6787 0.826134 17.797 1.02822 17.8777C1.2303 17.9585 1.44689 18 1.66562 18C1.88435 18 2.10094 17.9585 2.30303 17.8777C2.50511 17.797 2.68873 17.6787 2.84339 17.5296L10.5114 10.136C10.6663 9.98694 10.7892 9.80993 10.873 9.61507C10.9568 9.4202 11 9.21131 11 9.00034C11 8.78938 10.9568 8.58048 10.873 8.38562C10.7892 8.19075 10.6663 8.01374 10.5114 7.86472L2.84339 0.471073C2.68884 0.321745 2.50526 0.203273 2.30316 0.12244C2.10106 0.0416069 1.88442 0 1.66562 0C1.44683 0 1.23018 0.0416069 1.02808 0.12244C0.825983 0.203273 0.642403 0.321745 0.48785 0.471073C-0.146978 1.09929 -0.163684 2.13021 0.48785 2.75843Z" fill="#151515"/>
</svg>
