<svg width="11" height="18" viewBox="0 0 11 18" fill="none" xmlns="http://www.w3.org/2000/svg">
<path d="M10.5122 2.75843L4.03023 9.0084L10.5122 15.2584C10.6668 15.4075 10.7895 15.5845 10.8732 15.7794C10.9569 15.9742 11 16.1831 11 16.394C11 16.6049 10.9569 16.8137 10.8732 17.0086C10.7895 17.2034 10.6668 17.3805 10.5122 17.5296C10.3575 17.6787 10.1739 17.797 9.97178 17.8777C9.7697 17.9585 9.55311 18 9.33438 18C9.11565 18 8.89906 17.9585 8.69697 17.8777C8.49489 17.797 8.31127 17.6787 8.15661 17.5296L0.488558 10.136C0.333687 9.98694 0.210819 9.80993 0.126986 9.61507C0.0431522 9.4202 3.57628e-07 9.21131 3.57628e-07 9.00034C3.57628e-07 8.78938 0.0431522 8.58048 0.126986 8.38562C0.210819 8.19075 0.333687 8.01374 0.488558 7.86472L8.15661 0.471073C8.31116 0.321745 8.49474 0.203273 8.69684 0.12244C8.89894 0.0416069 9.11558 0 9.33438 0C9.55317 0 9.76982 0.0416069 9.97192 0.12244C10.174 0.203273 10.3576 0.321745 10.5122 0.471073C11.147 1.09929 11.1637 2.13021 10.5122 2.75843Z" fill="#151515"/>
</svg>
