<svg width="22" height="22" viewBox="0 0 22 22" fill="none" xmlns="http://www.w3.org/2000/svg">
<path d="M1.7111 3.3H5.19443V2.2C5.19443 1.61652 5.43909 1.05694 5.8746 0.644365C6.3101 0.231785 6.90076 0 7.51665 0H14.4833C15.0992 0 15.6899 0.231785 16.1254 0.644365C16.5609 1.05694 16.8055 1.61652 16.8055 2.2V3.3H20.2889C20.5968 3.3 20.8922 3.41589 21.1099 3.62218C21.3277 3.82847 21.45 4.10826 21.45 4.4C21.45 4.69174 21.3277 4.97153 21.1099 5.17782C20.8922 5.38411 20.5968 5.5 20.2889 5.5H19.1278V19.8C19.1278 20.3835 18.8831 20.9431 18.4476 21.3556C18.0121 21.7682 17.4214 22 16.8055 22H5.19443C4.57854 22 3.98787 21.7682 3.55237 21.3556C3.11687 20.9431 2.87221 20.3835 2.87221 19.8V5.5H1.7111C1.40315 5.5 1.10782 5.38411 0.890069 5.17782C0.672319 4.97153 0.549988 4.69174 0.549988 4.4C0.549988 4.10826 0.672319 3.82847 0.890069 3.62218C1.10782 3.41589 1.40315 3.3 1.7111 3.3ZM5.19443 5.5V19.8H16.8055V5.5H5.19443ZM7.51665 3.3H14.4833V2.2H7.51665V3.3ZM7.51665 7.7H9.83888V17.6H7.51665V7.7ZM12.1611 7.7H14.4833V17.6H12.1611V7.7Z" fill="#151515"/>
</svg>
