<svg width="26" height="26" viewBox="0 0 26 26" fill="none" xmlns="http://www.w3.org/2000/svg">
<path d="M14.4675 6.5H11.9306V11.7H6.85679V14.3H11.9306V19.5H14.4675V14.3H19.5413V11.7H14.4675V6.5ZM13.199 0C6.1972 0 0.514557 5.824 0.514557 13C0.514557 20.176 6.1972 26 13.199 26C20.2008 26 25.8835 20.176 25.8835 13C25.8835 5.824 20.2008 0 13.199 0ZM13.199 23.4C7.60517 23.4 3.05145 18.733 3.05145 13C3.05145 7.267 7.60517 2.6 13.199 2.6C18.7929 2.6 23.3466 7.267 23.3466 13C23.3466 18.733 18.7929 23.4 13.199 23.4Z" fill="#E6BE00"/>
</svg>
